<svg width="93" height="96" viewBox="0 0 93 96" fill="none" xmlns="http://www.w3.org/2000/svg">
<g filter="url(#filter0_d_122_881)">
<circle cx="43.4068" cy="43.0269" r="19.5932" fill="#BEE0C1" fill-opacity="0.34"/>
<circle cx="43.4068" cy="43.0269" r="19.5932" fill="#72BBA8"/>
<circle cx="43.4068" cy="37.4287" r="5.59805" fill="#199675" fill-opacity="0.71"/>
<path d="M34.31 48.6249C34.31 43.6009 38.3828 39.5281 43.4068 39.5281C48.4309 39.5281 52.5037 43.6009 52.5037 48.6249V53.5232H34.31V48.6249Z" fill="#199675"/>
<circle cx="77.4621" cy="9.94462" r="9.24358" fill="#BEE0C1" fill-opacity="0.34"/>
<circle cx="77.4621" cy="9.94462" r="9.24358" fill="white" fill-opacity="0.87"/>
<circle cx="77.4621" cy="7.30362" r="2.64102" fill="#199675" fill-opacity="0.71"/>
<path d="M73.1704 12.5857C73.1704 10.2155 75.0919 8.29407 77.4621 8.29407C79.8323 8.29407 81.7538 10.2155 81.7538 12.5857V14.8966H73.1704V12.5857Z" fill="#20463C"/>
<circle cx="10.3246" cy="25.5128" r="6.32455" fill="#BEE0C1" fill-opacity="0.34"/>
<circle cx="10.3246" cy="25.5128" r="6.32455" fill="white" fill-opacity="0.89"/>
<circle cx="10.3245" cy="23.7058" r="1.80701" fill="#199675" fill-opacity="0.71"/>
<path d="M7.38814 27.3201C7.38814 25.6983 8.70281 24.3837 10.3245 24.3837C11.9463 24.3837 13.2609 25.6983 13.2609 27.3201V28.9012H7.38814V27.3201Z" fill="#20463C"/>
<circle cx="76.0026" cy="74.6496" r="12.6491" fill="#BEE0C1" fill-opacity="0.34"/>
<circle cx="76.0026" cy="74.6496" r="12.6491" fill="white"/>
<circle cx="76.0026" cy="71.0354" r="3.61403" fill="#199675" fill-opacity="0.71"/>
<path d="M70.1298 78.2635C70.1298 75.0201 72.7591 72.3907 76.0026 72.3907C79.246 72.3907 81.8754 75.0201 81.8754 78.2635V81.4258H70.1298V78.2635Z" fill="#20463C"/>
<line x1="57.3165" y1="29.2701" x2="70.9405" y2="16.5122" stroke="#20463C" stroke-width="2"/>
<line x1="16.1177" y1="28.0211" x2="26.4416" y2="33.1028" stroke="#20463C" stroke-width="2"/>
<line x1="57.669" y1="56.2567" x2="67.669" y2="65.2567" stroke="#20463C" stroke-width="2"/>
</g>
<defs>
<filter id="filter0_d_122_881" x="0" y="0.70105" width="92.6517" height="94.5977" filterUnits="userSpaceOnUse" color-interpolation-filters="sRGB">
<feFlood flood-opacity="0" result="BackgroundImageFix"/>
<feColorMatrix in="SourceAlpha" type="matrix" values="0 0 0 0 0 0 0 0 0 0 0 0 0 0 0 0 0 0 127 0" result="hardAlpha"/>
<feOffset dy="4"/>
<feGaussianBlur stdDeviation="2"/>
<feComposite in2="hardAlpha" operator="out"/>
<feColorMatrix type="matrix" values="0 0 0 0 0 0 0 0 0 0 0 0 0 0 0 0 0 0 0.25 0"/>
<feBlend mode="normal" in2="BackgroundImageFix" result="effect1_dropShadow_122_881"/>
<feBlend mode="normal" in="SourceGraphic" in2="effect1_dropShadow_122_881" result="shape"/>
</filter>
</defs>
</svg>
