<svg width="86" height="79" viewBox="0 0 86 79" fill="none" xmlns="http://www.w3.org/2000/svg">
<g filter="url(#filter0_f_123_102)">
<path fill-rule="evenodd" clip-rule="evenodd" d="M74.5092 36.9928C70.1368 38.8213 65.3716 37.3845 63.8658 33.7837C62.36 30.1829 64.6838 25.7816 69.0562 23.9531V23.9531C69.0563 23.9531 69.0563 23.9531 69.0563 23.9531L64.4435 12.9226C64.2304 12.4131 63.6446 12.1727 63.1351 12.3858L6.92258 35.893C6.41306 36.1061 6.17273 36.6918 6.38581 37.2014L10.6128 47.3093C10.8259 47.8188 11.4111 48.0538 11.9386 47.8901C16.034 46.6193 20.2436 48.0969 21.642 51.441C23.0404 54.785 21.1359 58.8195 17.355 60.8424C16.868 61.103 16.6243 61.6846 16.8374 62.1941L21.0643 72.302C21.2774 72.8115 21.8632 73.0518 22.3727 72.8388L78.5852 49.3316C79.0948 49.1185 79.3351 48.5327 79.122 48.0232L74.5093 36.9928C74.5093 36.9928 74.5093 36.9928 74.5092 36.9928V36.9928Z" fill="black" fill-opacity="0.28"/>
</g>
<rect x="49.9391" y="26.4305" width="3.57555" height="27.1742" transform="rotate(67.3061 49.9391 26.4305)" fill="#E3EDEA" fill-opacity="0.44"/>
<rect x="43.3537" y="38.486" width="3.57555" height="15.7324" transform="rotate(67.3061 43.3537 38.486)" fill="#D9D9D9" fill-opacity="0.55"/>
<rect x="50.1311" y="47.2786" width="3.57555" height="18.5929" transform="rotate(67.3061 50.1311 47.2786)" fill="#D9D9D9" fill-opacity="0.42"/>
<path fill-rule="evenodd" clip-rule="evenodd" d="M78.5093 24.9928C74.1369 26.8213 69.3716 25.3845 67.8658 21.7837C66.36 18.1829 68.6839 13.7816 73.0563 11.9531V11.9531C73.0563 11.9531 73.0563 11.9531 73.0563 11.9531L68.4435 0.922579C68.2304 0.413053 67.6447 0.172733 67.1351 0.385809L10.9226 23.893C10.4131 24.1061 10.1728 24.6918 10.3858 25.2014L14.6128 35.3093C14.8259 35.8188 15.4111 36.0538 15.9386 35.8901C20.034 34.6193 24.2436 36.0969 25.642 39.441C27.0405 42.785 25.1359 46.8195 21.355 48.8424C20.8681 49.103 20.6243 49.6846 20.8374 50.1941L25.0644 60.302C25.2774 60.8115 25.8632 61.0518 26.3728 60.8388L82.5853 37.3316C83.0948 37.1185 83.3351 36.5327 83.122 36.0232L78.5093 24.9928C78.5093 24.9928 78.5093 24.9928 78.5093 24.9928V24.9928Z" fill="#199675"/>
<rect x="59.5271" y="12.0938" width="3.57555" height="33.2311" rx="1.78778" transform="rotate(67.3061 59.5271 12.0938)" fill="white"/>
<rect x="56.864" y="22.5089" width="3.57555" height="26.0408" rx="1.78778" transform="rotate(67.3061 56.864 22.5089)" fill="#BAD7CF"/>
<rect x="54.1534" y="33" width="3.57555" height="18.5929" rx="1.78778" transform="rotate(67.3061 54.1534 33)" fill="#D9D9D9" fill-opacity="0.42"/>
<defs>
<filter id="filter0_f_123_102" x="0.308136" y="6.30811" width="84.8915" height="72.6084" filterUnits="userSpaceOnUse" color-interpolation-filters="sRGB">
<feFlood flood-opacity="0" result="BackgroundImageFix"/>
<feBlend mode="normal" in="SourceGraphic" in2="BackgroundImageFix" result="shape"/>
<feGaussianBlur stdDeviation="3" result="effect1_foregroundBlur_123_102"/>
</filter>
</defs>
</svg>
