<svg width="302" height="302" viewBox="0 0 302 302" fill="none" xmlns="http://www.w3.org/2000/svg">
<rect width="302" height="302" rx="45" fill="#E3EDEA"/>
<path d="M44.8447 132C44.8447 115.984 57.8285 103 73.8447 103H221.536C241.418 103 257.536 119.118 257.536 139V180.053H44.8447V132Z" fill="#199675" fill-opacity="0.56"/>
<path d="M181.941 134.947C181.941 127.768 187.761 121.947 194.941 121.947H239.255C248.644 121.947 256.255 129.559 256.255 138.947V140.895H181.941V134.947Z" fill="#199675"/>
<path d="M237.036 158.414C237.036 154.32 240.355 151 244.45 151H257.536V169.947H248.569C242.199 169.947 237.036 164.784 237.036 158.414V158.414Z" fill="#38957C"/>
<ellipse cx="88.4081" cy="179.421" rx="21.7816" ry="19.5789" fill="#20463C"/>
<ellipse cx="206.285" cy="183.21" rx="16.6566" ry="15.7894" fill="#20463C"/>
</svg>
